<svg xmlns="http://www.w3.org/2000/svg" viewBox="0 0 1024 1024">
  <defs>
    <radialGradient id="bg" cx="42%" cy="34%" r="64%">
      <stop offset="0" stop-color="#ffdf25"/>
      <stop offset="0.68" stop-color="#ffc400"/>
      <stop offset="1" stop-color="#ff9512"/>
    </radialGradient>
    <linearGradient id="leaf" x1="210" y1="300" x2="460" y2="560" gradientUnits="userSpaceOnUse">
      <stop stop-color="#50c81c"/>
      <stop offset="1" stop-color="#278f12"/>
    </linearGradient>
    <linearGradient id="salmon" x1="620" y1="340" x2="846" y2="565" gradientUnits="userSpaceOnUse">
      <stop stop-color="#ff9126"/>
      <stop offset="1" stop-color="#ff6412"/>
    </linearGradient>
  </defs>
  <rect width="1024" height="1024" fill="#fffdf7"/>
  <circle cx="512" cy="512" r="468" fill="url(#bg)"/>
  <ellipse cx="512" cy="908" rx="310" ry="52" fill="#e27503" opacity=".3"/>
  <path fill="url(#leaf)" d="M292 254c61 0 105 48 108 109 45-12 97 24 101 76 62 6 82 95 28 129-40 25-126 20-188 17-89-5-168-33-173-106-4-48 22-84 61-101-16-65 12-124 63-124Z"/>
  <path fill="none" stroke="#b5e048" stroke-width="24" stroke-linecap="round" d="M318 522 270 360M330 510 248 432M330 510l60-86"/>
  <path fill="#fffff8" d="M462 324c34 0 61 25 64 58 15-49 88-61 120-17 16 22 19 45 12 64 58-20 118 20 118 82 0 57-49 83-96 83H405c-67 0-92-84-42-122 7-5 14-9 22-12-2-7-3-14-3-21 0-63 39-115 80-115Z"/>
  <g fill="#f5dfb8" opacity=".72">
    <circle cx="488" cy="432" r="15"/>
    <circle cx="572" cy="384" r="14"/>
    <circle cx="622" cy="468" r="15"/>
    <circle cx="540" cy="512" r="13"/>
  </g>
  <ellipse cx="730" cy="456" rx="154" ry="244" transform="rotate(41 730 456)" fill="#592d16" opacity=".9"/>
  <ellipse cx="734" cy="456" rx="121" ry="214" transform="rotate(41 734 456)" fill="url(#salmon)"/>
  <g fill="none" stroke="#ffb853" stroke-width="24" stroke-linecap="round" opacity=".82">
    <path d="M666 338c54 24 112 58 166 96"/>
    <path d="M650 402c59 28 119 65 170 104"/>
    <path d="M634 468c52 25 101 58 142 94"/>
  </g>
  <ellipse cx="400" cy="524" rx="150" ry="96" transform="rotate(5 400 524)" fill="#dda94a" opacity=".82"/>
  <ellipse cx="400" cy="524" rx="128" ry="78" transform="rotate(5 400 524)" fill="#fffff9"/>
  <circle cx="396" cy="524" r="58" fill="#ffcd12"/>
  <path fill="#682f10" d="M152 500h720c-12 175-77 306-186 384-25 18-47 31-67 31H405c-20 0-42-13-67-31-109-78-174-209-186-384Z"/>
  <path fill="#fffef7" d="M184 532h656c-20 139-72 247-178 318-18 12-31 26-38 26H400c-7 0-20-14-38-26-106-71-158-179-178-318Z"/>
  <rect x="348" y="812" width="328" height="116" rx="48" fill="#682f10"/>
  <rect x="382" y="802" width="260" height="82" rx="36" fill="#fffcf1"/>
  <path d="M126 512c72 48 705 50 772 0" fill="none" stroke="#682f10" stroke-width="36" stroke-linecap="round"/>
  <path d="M176 526c92 31 581 34 672 0" fill="none" stroke="#fffcef" stroke-width="26" stroke-linecap="round"/>
  <ellipse cx="370" cy="692" rx="31" ry="53" fill="#692d0c"/>
  <path d="M638 696c20-24 58-35 86 0" fill="none" stroke="#692d0c" stroke-width="36" stroke-linecap="round"/>
  <path d="M475 690c19 61 87 62 106 0 5 39-18 83-53 83s-58-44-53-83Z" fill="#692d0c"/>
  <ellipse cx="528" cy="764" rx="43" ry="28" fill="#ff7967" opacity=".96"/>
  <ellipse cx="366" cy="756" rx="58" ry="42" fill="#ff8169" opacity=".85"/>
  <ellipse cx="720" cy="760" rx="58" ry="42" fill="#ff8169" opacity=".85"/>
  <path fill="#fff" opacity=".96" d="M570 82c43 0 77 34 78 76 27-34 80-35 111-4 34 34 34 88 0 122-38 38-103 61-171 76-32-61-59-125-59-179 0-50 35-91 41-91Z"/>
  <path d="M778 218c31 20 58 45 80 74" fill="none" stroke="#fff" stroke-width="36" stroke-linecap="round" opacity=".9"/>
</svg>
